<mxfile host="65bd71144e">
    <diagram id="XvCcAh1NQHmCPXAJNBbC" name="ページ1">
        <mxGraphModel dx="794" dy="746" grid="1" gridSize="10" guides="1" tooltips="1" connect="1" arrows="1" fold="1" page="1" pageScale="1" pageWidth="827" pageHeight="1169" math="0" shadow="0">
            <root>
                <mxCell id="0"/>
                <mxCell id="1" parent="0"/>
                <mxCell id="500" value="controller" style="swimlane;whiteSpace=wrap;html=1;" vertex="1" parent="1">
                    <mxGeometry x="40" y="40" width="360" height="370" as="geometry">
                        <mxRectangle x="40" y="40" width="100" height="30" as="alternateBounds"/>
                    </mxGeometry>
                </mxCell>
                <mxCell id="501" value="tips.py" style="swimlane;whiteSpace=wrap;html=1;" vertex="1" parent="500">
                    <mxGeometry x="30" y="40" width="300" height="290" as="geometry"/>
                </mxCell>
                <mxCell id="507" style="edgeStyle=orthogonalEdgeStyle;curved=1;html=1;exitX=0.5;exitY=1;exitDx=0;exitDy=0;entryX=0.5;entryY=0;entryDx=0;entryDy=0;" edge="1" parent="501" source="504" target="505">
                    <mxGeometry relative="1" as="geometry"/>
                </mxCell>
                <mxCell id="504" value="list_tips" style="rounded=1;whiteSpace=wrap;html=1;" vertex="1" parent="501">
                    <mxGeometry x="90" y="40" width="120" height="60" as="geometry"/>
                </mxCell>
                <mxCell id="505" value="get_tips_use_case" style="rounded=1;whiteSpace=wrap;html=1;" vertex="1" parent="501">
                    <mxGeometry x="170" y="160" width="120" height="60" as="geometry"/>
                </mxCell>
                <mxCell id="502" value="feature/tips" style="swimlane;whiteSpace=wrap;html=1;" vertex="1" parent="1">
                    <mxGeometry x="420" y="40" width="540" height="810" as="geometry">
                        <mxRectangle x="40" y="40" width="100" height="30" as="alternateBounds"/>
                    </mxGeometry>
                </mxCell>
                <mxCell id="503" value="dependencies.py" style="swimlane;whiteSpace=wrap;html=1;" vertex="1" parent="502">
                    <mxGeometry x="60" y="40" width="440" height="290" as="geometry"/>
                </mxCell>
                <mxCell id="511" style="edgeStyle=orthogonalEdgeStyle;curved=1;html=1;exitX=0.5;exitY=1;exitDx=0;exitDy=0;entryX=0.5;entryY=0;entryDx=0;entryDy=0;" edge="1" parent="503" source="508" target="509">
                    <mxGeometry relative="1" as="geometry"/>
                </mxCell>
                <mxCell id="508" value="get_tips_use_case" style="rounded=1;whiteSpace=wrap;html=1;" vertex="1" parent="503">
                    <mxGeometry x="160" y="40" width="120" height="60" as="geometry"/>
                </mxCell>
                <mxCell id="509" value="get_tips_query_service" style="rounded=1;whiteSpace=wrap;html=1;" vertex="1" parent="503">
                    <mxGeometry x="240" y="160" width="130" height="60" as="geometry"/>
                </mxCell>
                <mxCell id="521" value="data" style="swimlane;whiteSpace=wrap;html=1;fontSize=14;" vertex="1" parent="502">
                    <mxGeometry x="20" y="470" width="500" height="340" as="geometry"/>
                </mxCell>
                <mxCell id="523" value="Vertical Container" style="swimlane;whiteSpace=wrap;html=1;fontSize=14;" vertex="1" parent="521">
                    <mxGeometry x="30" y="50" width="440" height="200" as="geometry"/>
                </mxCell>
                <mxCell id="526" value="TipsQueryServiceImpl" style="swimlane;fontStyle=0;childLayout=stackLayout;horizontal=1;startSize=30;horizontalStack=0;resizeParent=1;resizeParentMax=0;resizeLast=0;collapsible=1;marginBottom=0;whiteSpace=wrap;html=1;fontSize=14;" vertex="1" parent="523">
                    <mxGeometry x="110" y="50" width="190" height="60" as="geometry"/>
                </mxCell>
                <mxCell id="527" value="session: Session" style="text;strokeColor=none;fillColor=none;align=left;verticalAlign=middle;spacingLeft=4;spacingRight=4;overflow=hidden;points=[[0,0.5],[1,0.5]];portConstraint=eastwest;rotatable=0;whiteSpace=wrap;html=1;fontSize=14;" vertex="1" parent="526">
                    <mxGeometry y="30" width="190" height="30" as="geometry"/>
                </mxCell>
                <mxCell id="525" style="edgeStyle=orthogonalEdgeStyle;curved=1;html=1;exitX=0.5;exitY=1;exitDx=0;exitDy=0;entryX=0.5;entryY=0;entryDx=0;entryDy=0;fontSize=14;" edge="1" parent="502" source="509">
                    <mxGeometry relative="1" as="geometry">
                        <mxPoint x="260" y="570" as="targetPoint"/>
                    </mxGeometry>
                </mxCell>
                <mxCell id="513" value="core/database/mysql" style="swimlane;whiteSpace=wrap;html=1;" vertex="1" parent="1">
                    <mxGeometry x="1010" y="40" width="340" height="570" as="geometry">
                        <mxRectangle x="40" y="40" width="100" height="30" as="alternateBounds"/>
                    </mxGeometry>
                </mxCell>
                <mxCell id="514" value="database.py" style="swimlane;whiteSpace=wrap;html=1;" vertex="1" parent="513">
                    <mxGeometry x="20" y="40" width="300" height="120" as="geometry"/>
                </mxCell>
                <mxCell id="516" value="get_session" style="rounded=1;whiteSpace=wrap;html=1;" vertex="1" parent="514">
                    <mxGeometry x="90" y="40" width="120" height="60" as="geometry"/>
                </mxCell>
                <mxCell id="518" style="edgeStyle=orthogonalEdgeStyle;curved=1;html=1;exitX=1;exitY=0.5;exitDx=0;exitDy=0;entryX=0;entryY=0.5;entryDx=0;entryDy=0;" edge="1" parent="1" source="509" target="516">
                    <mxGeometry relative="1" as="geometry"/>
                </mxCell>
                <mxCell id="522" style="edgeStyle=orthogonalEdgeStyle;curved=1;html=1;exitX=0.5;exitY=1;exitDx=0;exitDy=0;entryX=1;entryY=0.75;entryDx=0;entryDy=0;fontSize=14;" edge="1" parent="1" source="516" target="509">
                    <mxGeometry relative="1" as="geometry"/>
                </mxCell>
            </root>
        </mxGraphModel>
    </diagram>
</mxfile>